<?xml version="1.0" encoding="UTF-8" standalone="no"?>
<!-- Created with Inkscape (http://www.inkscape.org/) -->

<svg
   xmlns:dc="http://purl.org/dc/elements/1.1/"
   xmlns:cc="http://creativecommons.org/ns#"
   xmlns:rdf="http://www.w3.org/1999/02/22-rdf-syntax-ns#"
   xmlns:svg="http://www.w3.org/2000/svg"
   xmlns="http://www.w3.org/2000/svg"
   xmlns:xlink="http://www.w3.org/1999/xlink"
   xmlns:sodipodi="http://sodipodi.sourceforge.net/DTD/sodipodi-0.dtd"
   xmlns:inkscape="http://www.inkscape.org/namespaces/inkscape"
   width="44"
   height="36"
   id="svg76038"
   version="1.1"
   inkscape:version="0.48.4 r9939"
   sodipodi:docname="nav_periodic_table.svg">
  <defs
     id="defs76040">
    <linearGradient
       inkscape:collect="always"
       xlink:href="#linearGradient75957"
       id="linearGradient75975"
       x1="7.875"
       y1="55.3125"
       x2="35.625"
       y2="58.9375"
       gradientUnits="userSpaceOnUse"
       gradientTransform="translate(0.31875,987.13722)" />
    <linearGradient
       id="linearGradient75957">
      <stop
         style="stop-color:#006396;stop-opacity:1;"
         offset="0"
         id="stop75959" />
      <stop
         style="stop-color:#964e00;stop-opacity:1;"
         offset="1"
         id="stop75961" />
    </linearGradient>
    <linearGradient
       inkscape:collect="always"
       xlink:href="#linearGradient75957"
       id="linearGradient75973"
       x1="3.84375"
       y1="39.15625"
       x2="39.59375"
       y2="52.96875"
       gradientUnits="userSpaceOnUse"
       gradientTransform="translate(0.31875,640)" />
    <linearGradient
       id="linearGradient76061">
      <stop
         style="stop-color:#006396;stop-opacity:1;"
         offset="0"
         id="stop76063" />
      <stop
         style="stop-color:#964e00;stop-opacity:1;"
         offset="1"
         id="stop76065" />
    </linearGradient>
    <linearGradient
       y2="52.96875"
       x2="39.59375"
       y1="39.15625"
       x1="3.84375"
       gradientTransform="translate(0.31875,987.13722)"
       gradientUnits="userSpaceOnUse"
       id="linearGradient76072"
       xlink:href="#linearGradient75957"
       inkscape:collect="always" />
    <linearGradient
       inkscape:collect="always"
       xlink:href="#linearGradient75957-4"
       id="linearGradient75963"
       x1="4.334764"
       y1="93.602463"
       x2="39.322853"
       y2="70.552711"
       gradientUnits="userSpaceOnUse"
       gradientTransform="matrix(1.0110651,0,0,1.0086874,-0.13280533,639.184)" />
    <linearGradient
       id="linearGradient75957-4">
      <stop
         style="stop-color:#006396;stop-opacity:1;"
         offset="0"
         id="stop75959-6" />
      <stop
         style="stop-color:#964e00;stop-opacity:1;"
         offset="1"
         id="stop75961-2" />
    </linearGradient>
    <linearGradient
       y2="70.552711"
       x2="39.322853"
       y1="93.602463"
       x1="4.334764"
       gradientTransform="matrix(1.0110651,0,0,1.0086874,-0.13280194,951.63466)"
       gradientUnits="userSpaceOnUse"
       id="linearGradient76146"
       xlink:href="#linearGradient75957-4"
       inkscape:collect="always" />
  </defs>
  <sodipodi:namedview
     id="base"
     pagecolor="#000000"
     bordercolor="#666666"
     borderopacity="1.0"
     inkscape:pageopacity="1"
     inkscape:pageshadow="2"
     inkscape:zoom="11.2"
     inkscape:cx="32.246617"
     inkscape:cy="23.367795"
     inkscape:document-units="px"
     inkscape:current-layer="layer1"
     showgrid="false"
     width="44px"
     inkscape:window-width="1029"
     inkscape:window-height="803"
     inkscape:window-x="2713"
     inkscape:window-y="123"
     inkscape:window-maximized="0" />
  <metadata
     id="metadata76043">
    <rdf:RDF>
      <cc:Work
         rdf:about="">
        <dc:format>image/svg+xml</dc:format>
        <dc:type
           rdf:resource="http://purl.org/dc/dcmitype/StillImage" />
        <dc:title></dc:title>
      </cc:Work>
    </rdf:RDF>
  </metadata>
  <g
     inkscape:label="Layer 1"
     inkscape:groupmode="layer"
     id="layer1"
     transform="translate(0,-1016.3622)">
    <path
       style="fill:url(#linearGradient76146);fill-opacity:1;stroke:#ffffff;stroke-width:0.20197512;stroke-linejoin:bevel;stroke-miterlimit:4;stroke-opacity:1;stroke-dasharray:none;stroke-dashoffset:0.62000001;marker-mid:none;display:inline"
       d="m 39.36193,1022.4635 0,0.2206 0,0.1576 0,0.031 -0.06319,0 -0.157979,0 0,0.2207 -0.06319,0 -0.157979,0 0,0.1891 -0.189574,0 0,0.1576 0,0.063 -0.189576,0 -0.189574,0 -1.011065,0 0,0.1892 -0.473937,0 -0.410745,0 0,0.2206 -0.252767,0 -0.157979,0 0,0.1891 -0.252766,0 -0.157979,0 0,0.2207 -0.157979,0 -0.252766,0 0,0.1891 -0.189574,0 0,0.2207 -0.157979,0 -0.252767,0 0,0.1576 0,0.031 -0.189575,0 0,0.1576 0,0.2206 0,0.032 -0.22117,0 0,0.1576 0,0.063 -0.663512,0 -0.157978,0 0,0.1892 -0.442341,0 -0.157979,0 0,0.4097 -0.252766,0 -0.157979,0 0,0.2207 -0.252767,0 -0.157978,0 0,0.2206 0,0.1576 0,0.031 -0.252767,0 -0.157979,0 0,0.2207 -0.06319,0 -0.157978,0 0,0.1891 -0.0316,0 -0.157979,0 0,0.2207 -1.485002,0 -0.157979,0 0,0.1891 -0.663511,0 -0.157979,0 0,0.2207 -0.442341,0 -0.157979,0 0,0.1891 -0.221171,0 0,0.1576 0,0.063 -0.663511,0 -0.157979,0 0,0.1891 -0.0316,0 -0.157979,0 0,0.2207 -0.884682,0 -0.157979,0 0,0.1891 -0.0316,0 -0.157979,0 0,0.2207 -0.473938,0 -0.157978,0 0,0.1891 -0.22117,0 -0.15798,0 0,0.2206 -0.884682,0 -0.157978,0 0,0.1892 -0.0316,0 -0.15798,0 0,0.2206 -0.66351,0 -0.157979,0 0,0.1892 0,0.1576 0,0.063 -0.473938,0 -0.157978,0 0,0.1891 -0.0316,0 -0.157979,0 0,0.2206 -0.252766,0 -0.157979,0 0,0.1892 0,0.1576 0,0.063 -0.252766,0 -0.157979,0 0,0.2206 -0.06319,0 -0.157979,0 0,0.1891 -0.0316,0 -0.157978,0 0,0.2207 -0.252767,0 -0.157979,0 0,0.1891 0,0.1576 0,0.063 -0.06319,0 -0.410745,0 -0.157979,0 0,0.1892 0,0.1576 0,0.063 -0.0316,0 -0.410746,0 -0.157978,0 0,0.1891 0,0.1576 0,0.063 -0.442341,0 -0.15798,0 0,0.4098 -0.473936,0 -0.157979,0 0,0.1891 -0.0316,0 -0.157979,0 0,0.4098 -0.06319,0 -0.157978,0 0,0.2207 -0.442341,0 -0.157979,0 0,0.1891 -0.06319,0 -0.157979,0 0,0.2206 -0.0316,0 -0.157979,0 0,0.1892 -0.252767,0 -0.157978,0 0,0.2206 -0.06319,0 -0.157978,0 0,0.1891 -0.252767,0 -0.157979,0 0,0.2207 0,0.1576 0,0.032 -0.252766,0 -0.157979,0 0,0.2206 -0.0316,0 -0.157979,0 0,0.1892 -0.252767,0 -0.157978,0 0,0.2206 -0.0316,0 -0.157979,0 0,0.2207 -0.06319,0 -0.157979,0 0,0.1891 -0.0316,0 -0.157979,0 0,0.2207 -0.252766,0 -0.157979,0 0,0.1891 -0.06319,0 -0.157979,0 0,0.2206 -0.0316,0 -0.157979,0 0,0.1892 -0.06319,0 -0.157978,0 0,0.2206 -0.0316,0 -0.15798,0 0,0.1891 -0.06319,0 -0.157979,0 0,0.2207 -0.252766,0 -0.157979,0 0,0.1891 -0.0316,0 -0.15798,0 0,0.2207 -0.252766,0 -0.157979,0 0,0.1891 0,0.1576 0,0.063 -0.252766,0 -0.157979,0 0,0.1891 0,0.1576 0,0.063 -0.473937,0 -0.157979,0 0,0.1892 0,0.1576 0,0.063 -0.2527664,0 -0.157979,0 0,0.4098 -0.631915,0 -0.157979,0 0,0.1891 0,0.1576 0,0.063 -0.06319,0 -0.157979,0 0,0.1891 0,0.1892 0,0.031 -0.663512,0 -0.157979,0 0,0.2206 0,0.1576 0,0.032 -0.0316,0 -0.157979,0 0,0.4098 -0.06319,0 -0.157979,0 0,0.4098 -0.442341,0 -0.157979,0 0,0.2206 0,0.1576 0,0.032 -0.252766,0 -0.157979,0 0,0.2207 0,0.1576 0,0.031 -0.252766,0 -0.157979,0 0,0.2207 0,0.1576 0,0.032 -0.252766,0 -0.157979,0 0,0.3152 0,0.094 -0.06319,0 -0.157979,0 0,0.2206 0,0.1576 0,0.031 -0.0316,0 -0.157979,0 0,0.2207 0,0.1576 0,0.032 -0.252766,0 -0.157979,0 0,0.2206 0,0.1577 0,0.032 -0.252767,0 -0.157979,0 0,0.2206 0,0.1576 0,0.032 0,0.1576 0,0.063 -0.06319,0 -0.157979,0 0,0.094 0,0.063 0,0.063 0,0.1576 0,0.1892 0.157979,0 1.042661,0 0,-0.1576 0,-0.031 0,-0.1576 0,-0.2207 0,-0.063 0.252767,0 0,0.063 0,0.1576 0,0.2207 0.157979,0 0,-0.2207 0.189574,0 0,-0.1576 0,-0.063 0.631916,0 0,-0.1576 0,-0.032 0.410745,0 0,-0.1576 0,-0.063 0.410745,0 0,-0.1576 0,-0.032 0.189575,0 0,-0.1577 0,-0.063 0.221171,0 0.410745,0 0,-0.1576 0,-0.032 0,-0.1576 0,-0.063 0.82149,0 0,-0.1576 0,-0.031 0.37915,0 0,-0.1576 0,-0.063 0.410745,0 0,-0.1576 0,-0.032 0.4107444,0 0,-0.1576 0,-0.063 0,-0.1576 0,-0.032 0.221171,0 0,-0.1576 0,-0.063 0.410745,0 0,-0.1576 0,-0.031 0.189575,0 0,-0.1576 0,-0.063 0.22117,0 0,-0.1576 0,-0.032 0.410746,0 0,-0.1576 0,-0.063 0.189574,0 0,-0.1576 0,-0.032 0.410745,0 0,-0.1576 0,-0.063 0.221171,0 0,-0.1576 0,-0.031 0.410745,0 0,-0.1577 0,-0.063 0.189575,0 0,-0.1576 0,-0.032 0.410745,0 0,-0.1576 0,-0.063 0.410745,0 0,-0.1576 0,-0.032 0.22117,0 0,-0.1891 0,-0.032 0.37915,0 0,-0.1577 0,-0.063 0.410745,0 0,-0.1576 0,-0.032 0.410745,0 0,-0.1576 0,-0.063 0.221171,0 0,-0.1576 0,-0.031 0.410745,0 0,-0.1576 0,-0.063 0,-0.1576 0,-0.032 0.60032,0 0,-0.1576 0,-0.063 0.410745,0 0,-0.1576 0,-0.032 0.410745,0 0,-0.1576 0,-0.063 0.221171,0 0,-0.1576 0,-0.031 0.60032,0 0,-0.1576 0,-0.063 0.221171,0 0,-0.1576 0,-0.032 0.410745,0 0,-0.1576 0,-0.063 0.410744,0 0,-0.1576 0,-0.032 0.189576,0 0,-0.1576 0,-0.063 0.410745,0 0,-0.1576 0,-0.031 0.600319,0 0,-0.1577 0,-0.063 0.221171,0 0,-0.1576 0,-0.032 0.189575,0 0,-0.1576 0,-0.063 0.221171,0 0,-0.1576 0,-0.032 0.410745,0 0,-0.1576 0,-0.063 0.189574,0 0,-0.1576 0,-0.032 0.410745,0 0,-0.1891 0,-0.032 0.221171,0 0,-0.1576 0,-0.063 0.410746,0 0,-0.1576 0,-0.031 0.189574,0 0,-0.1577 0,-0.063 0.410745,0 0,-0.1576 0,-0.032 0.410745,0 0,-0.1576 0,-0.063 0,-0.1576 0,-0.032 0,-0.1576 0,-0.063 0.221171,0 0,-0.1576 0,-0.031 0,-0.1576 0,-0.063 0.189575,0 0,-0.1576 0,-0.032 0,-0.1576 0,-0.063 0.410745,0 0,-0.1576 0,-0.032 0.410745,0 0,-0.1576 0,-0.063 0,-0.1576 0,-0.032 0.189574,0 0,-0.1576 0,-0.063 0,-0.1576 0,-0.032 0.410746,0 0,-0.1577 0,-0.063 0.410745,0 0,-0.1576 0,-0.031 0.410745,0 0,-0.1576 0,-0.063 0.221171,0 0,-0.1576 0,-0.032 0.60032,0 0,-0.1576 0,-0.063 0.410745,0 0,-0.1576 0,-0.032 0.82149,0 0,-0.1576 0,-0.063 0.221171,0 0,-0.1576 0,-0.063 0.189575,0 0,-0.1576 0,-0.032 1.042661,0 0,-0.1576 0,-0.063 0,-0.1577 0,-0.032 0.189574,0 0,-0.1576 0,-0.063 0.821491,0 0,-0.1576 0,-0.032 1.011065,0 0,-0.1576 0,-0.063 0,-0.1576 0,-0.032 0.410745,0 0,-0.1576 0,-0.063 0.631916,0 0,-0.1576 0,-0.032 0.410745,0 0,-0.1576 0,-0.063 0.189574,0 0,-0.1576 0,-0.031 0.221171,0 0,-0.1576 0,-0.063 0.189575,0 0,-0.1576 0,-0.032 0,-0.1576 0,-0.063 0.221171,0 0,-0.1576 0,-0.032 0.189574,0 0,-0.1576 0,-0.063 0,-0.1577 0,-0.031 0.410745,0 0,-0.1576 0,-0.063 0.221171,0 0,-0.1891 0.126383,0 0.09479,0 0.06319,0 0.09479,0 0,-0.3152 0,-0.095 0.09479,0 0.126384,0 0.189574,0 0.221171,0 0,-0.2207 0.189574,0 0,-0.1891 0.221171,0 0,-0.1891 0,-0.1891 0,-0.063 0.189574,0 0.221171,0 0,-0.1892 0.189575,0 0,-0.1576 -0.189575,0 0,-0.2206 -0.221171,0 0,-0.2837 0,-0.1261 -0.189574,0 0,-0.2522 0.189574,0 0.252767,0 0,0.2207 0.126383,0 0.0316,0 0.410745,0 0,-0.1576 0,-0.6305 0.252766,0 0,0.2207 0,0.5674 0.157979,0 0,-0.8196 0.252767,0 0,0.1892 0,0.2206 0.157978,0 0,-0.2522 0,-0.1576 0.410746,0 0,-0.2206 0.252766,0 0.157979,0 0,-0.1892 0,-0.2206 0.221171,0 0.189574,0 0,-0.1576 0,-0.1891 0,-0.063 0.221171,0 0.189574,0 0,-0.2207 0,-0.1261 -0.189574,0 0,-0.2206 -0.347554,0 z"
       id="rect28-8"
       inkscape:connector-curvature="0" />
    <text
       xml:space="preserve"
       style="font-size:4px;font-style:normal;font-variant:normal;font-weight:normal;font-stretch:normal;text-align:center;line-height:125%;letter-spacing:0px;word-spacing:0px;writing-mode:lr-tb;text-anchor:middle;fill:#ffffff;fill-opacity:1;stroke:none;display:inline;font-family:Sans;-inkscape-font-specification:Sans"
       x="14.679691"
       y="1027.9419"
       id="text10850-8"
       sodipodi:linespacing="125%"><tspan
         sodipodi:role="line"
         x="14.679691"
         y="1027.9419"
         id="tspan75987-7">Chart</tspan></text>
    <text
       xml:space="preserve"
       style="font-size:4px;font-style:normal;font-variant:normal;font-weight:normal;font-stretch:normal;text-align:end;line-height:125%;letter-spacing:0px;word-spacing:0px;writing-mode:lr-tb;text-anchor:end;fill:#ffffff;fill-opacity:1;stroke:none;display:inline;font-family:Sans;-inkscape-font-specification:Sans"
       x="34.036137"
       y="1040.0669"
       id="text10850-8-5"
       sodipodi:linespacing="125%"><tspan
         sodipodi:role="line"
         x="34.036137"
         y="1040.0669"
         id="tspan75987-7-0">of</tspan><tspan
         sodipodi:role="line"
         x="34.036137"
         y="1045.0669"
         id="tspan76036">Nuclides</tspan></text>
  </g>
</svg>
