<?xml version="1.0" encoding="UTF-8" standalone="no"?>
<!-- Created with Inkscape (http://www.inkscape.org/) -->

<svg
   xmlns:dc="http://purl.org/dc/elements/1.1/"
   xmlns:cc="http://creativecommons.org/ns#"
   xmlns:rdf="http://www.w3.org/1999/02/22-rdf-syntax-ns#"
   xmlns:svg="http://www.w3.org/2000/svg"
   xmlns="http://www.w3.org/2000/svg"
   xmlns:xlink="http://www.w3.org/1999/xlink"
   xmlns:sodipodi="http://sodipodi.sourceforge.net/DTD/sodipodi-0.dtd"
   xmlns:inkscape="http://www.inkscape.org/namespaces/inkscape"
   width="44"
   height="36"
   id="svg76038"
   version="1.1"
   inkscape:version="0.48.4 r9939"
   sodipodi:docname="periodic_table.svg">
  <defs
     id="defs76040">
    <linearGradient
       inkscape:collect="always"
       xlink:href="#linearGradient75957"
       id="linearGradient75975"
       x1="7.875"
       y1="55.3125"
       x2="35.625"
       y2="58.9375"
       gradientUnits="userSpaceOnUse"
       gradientTransform="translate(0.31875,987.13722)" />
    <linearGradient
       id="linearGradient75957">
      <stop
         style="stop-color:#006396;stop-opacity:1;"
         offset="0"
         id="stop75959" />
      <stop
         style="stop-color:#964e00;stop-opacity:1;"
         offset="1"
         id="stop75961" />
    </linearGradient>
    <linearGradient
       inkscape:collect="always"
       xlink:href="#linearGradient75957"
       id="linearGradient75973"
       x1="3.84375"
       y1="39.15625"
       x2="39.59375"
       y2="52.96875"
       gradientUnits="userSpaceOnUse"
       gradientTransform="translate(0.31875,640)" />
    <linearGradient
       id="linearGradient76061">
      <stop
         style="stop-color:#006396;stop-opacity:1;"
         offset="0"
         id="stop76063" />
      <stop
         style="stop-color:#964e00;stop-opacity:1;"
         offset="1"
         id="stop76065" />
    </linearGradient>
    <linearGradient
       y2="52.96875"
       x2="39.59375"
       y1="39.15625"
       x1="3.84375"
       gradientTransform="translate(0.31875,987.13722)"
       gradientUnits="userSpaceOnUse"
       id="linearGradient76072"
       xlink:href="#linearGradient75957"
       inkscape:collect="always" />
  </defs>
  <sodipodi:namedview
     id="base"
     pagecolor="#000000"
     bordercolor="#666666"
     borderopacity="1.0"
     inkscape:pageopacity="1"
     inkscape:pageshadow="2"
     inkscape:zoom="11.2"
     inkscape:cx="32.246617"
     inkscape:cy="23.367795"
     inkscape:document-units="px"
     inkscape:current-layer="layer1"
     showgrid="false"
     width="44px"
     inkscape:window-width="1029"
     inkscape:window-height="803"
     inkscape:window-x="2713"
     inkscape:window-y="123"
     inkscape:window-maximized="0" />
  <metadata
     id="metadata76043">
    <rdf:RDF>
      <cc:Work
         rdf:about="">
        <dc:format>image/svg+xml</dc:format>
        <dc:type
           rdf:resource="http://purl.org/dc/dcmitype/StillImage" />
        <dc:title />
      </cc:Work>
    </rdf:RDF>
  </metadata>
  <g
     inkscape:label="Layer 1"
     inkscape:groupmode="layer"
     id="layer1"
     transform="translate(0,-1016.3622)">
    <path
       style="fill:url(#linearGradient76072);fill-opacity:1;stroke:#ffffff;stroke-width:0.2;stroke-linejoin:bevel;stroke-miterlimit:4;stroke-opacity:1;stroke-dasharray:none;display:inline"
       d="m 4.1,1026.2622 0,3.9688 0,1 0,1.0625 0,2.0312 0,0.4063 0,1.0937 0,0.9375 0,1.4375 0,0.1563 0,0.5625 0,1.2812 2.5,0 12.375,0 1.03125,0 10.03125,0 8.59375,0 0.0625,0 1.40625,0 0,-1.8437 0,-2.0313 0,-1.4062 0,-1.8438 0,-0.5312 0,-3.3438 0,-0.7812 0,-0.1563 0,-2 -1.84375,0 0,2 -1.71875,0 -0.21875,0 -3.53125,0 -0.78125,0 -3.78125,0 0,2.0313 0,0.3437 0,1.6563 -6.21875,0 -0.65625,0 -0.71875,0 -1.8125,0 -10.875,0 0,-1.7188 0,-0.2812 0,-2.0313 -2,0 0,-2 -1.84375,0 z"
       id="rect65647-8"
       inkscape:connector-curvature="0" />
    <path
       style="fill:url(#linearGradient75975);fill-opacity:1;stroke:#ffffff;stroke-width:0.2;stroke-linejoin:bevel;stroke-miterlimit:4;stroke-opacity:1;stroke-dasharray:none;display:inline"
       d="m 8.13125,1042.3872 0,2.0313 0,0.4375 0,1.4062 1.28125,0 0.53125,0 2.03125,0 13.34375,0 0.71875,0 9.09375,0 0.9375,0 0,-1.8437 0,-2.0313 -0.9375,0 -8.5,0 -0.5,0 -1.9375,0 -1.40625,0 -12.84375,0 -0.53125,0 -1.28125,0 z"
       id="rect70717-8"
       inkscape:connector-curvature="0" />
    <text
       xml:space="preserve"
       style="font-size:4px;font-style:normal;font-variant:normal;font-weight:normal;font-stretch:normal;text-align:center;line-height:125%;letter-spacing:0px;word-spacing:0px;writing-mode:lr-tb;text-anchor:middle;fill:#ffffff;fill-opacity:1;stroke:none;display:inline;font-family:Sans;-inkscape-font-specification:Sans"
       x="17.910547"
       y="1025.1683"
       id="text10850"
       sodipodi:linespacing="125%"><tspan
         sodipodi:role="line"
         id="tspan10852"
         x="17.910547"
         y="1025.1683">Periodic</tspan><tspan
         sodipodi:role="line"
         x="17.910547"
         y="1030.1683"
         id="tspan75987">Table</tspan></text>
  </g>
</svg>
